<svg xmlns="http://www.w3.org/2000/svg" viewBox="0 0 512 512"><path d="M504.5 279.007a7.5 7.5 0 0 0-7.5 7.5v49.722H315.013v-29.45c0-9.48-6.901-17.361-15.939-18.931v-12.21c0-3.186-1.241-6.18-3.496-8.431a11.76 11.76 0 0 0-8.365-3.465h-.035a8.85 8.85 0 0 1-6.304-2.614 8.85 8.85 0 0 1-2.604-6.325c.016-4.729 4.393-8.877 9.366-8.877h11.252c4.975 0 9.429-2.773 11.625-7.236s1.676-9.684-1.359-13.625l-43.751-56.806a11.79 11.79 0 0 0-9.403-4.626c-3.71 0-7.137 1.687-9.401 4.627l-43.751 56.805c-3.035 3.941-3.556 9.162-1.36 13.625s6.651 7.236 11.625 7.236h11.252c4.974 0 9.352 4.148 9.367 8.877a8.85 8.85 0 0 1-2.604 6.325 8.85 8.85 0 0 1-6.304 2.614h-.036c-3.155 0-6.125 1.23-8.364 3.465a11.84 11.84 0 0 0-3.496 8.431v12.21c-9.038 1.57-15.939 9.451-15.939 18.931v29.45H15v-12.388a7.5 7.5 0 0 0-15 0v55.102c0 17.964 14.614 32.579 32.578 32.579h167.689c-4.295 12.669-11.984 26.27-25.731 32.902-6.493 3.126-10.526 9.471-10.526 16.557v.92c0 10.085 8.209 18.29 18.3 18.29h150.97c10.085 0 18.29-8.205 18.29-18.29v-.92c0-7.082-4.027-13.424-10.512-16.555-13.742-6.63-21.436-20.232-25.739-32.905h164.103c17.964 0 32.578-14.615 32.578-32.579v-92.436a7.5 7.5 0 0 0-7.5-7.499m-276.574-.463c5.217-.672 10.037-3.034 13.815-6.817 4.528-4.535 7.01-10.563 6.989-16.972-.042-12.917-11.201-23.829-24.367-23.829h-7.098L256 180.634l38.734 50.292h-7.099c-13.166 0-24.324 10.912-24.366 23.828-.021 6.409 2.461 12.437 6.988 16.972 3.779 3.785 8.6 6.146 13.815 6.818v9.001h-56.146zm-15.938 28.235a4.24 4.24 0 0 1 4.234-4.234h79.557a4.24 4.24 0 0 1 4.234 4.234v29.45h-88.025zm122.551 151.156c1.253.604 2.031 1.771 2.031 3.045v.92a3.294 3.294 0 0 1-3.29 3.29H182.31c-1.82 0-3.3-1.476-3.3-3.29v-.92c0-1.272.779-2.438 2.04-3.045 20.154-9.724 30.063-29.581 34.933-46.415h83.62c4.878 16.838 14.793 36.697 34.936 46.415M497 378.942c0 9.693-7.886 17.579-17.578 17.579H32.578c-9.692 0-17.578-7.886-17.578-17.579v-27.714h482z"/><path d="M487.625 31.809H333.173c-4.143 0-7.5 3.358-7.5 7.5s3.357 7.5 7.5 7.5h154.452c5.169 0 9.375 4.206 9.375 9.375v24.9H15v-24.9c0-5.169 4.206-9.375 9.375-9.375h275.119c4.143 0 7.5-3.358 7.5-7.5s-3.357-7.5-7.5-7.5H24.375C10.935 31.809 0 42.744 0 56.185v233.976a7.5 7.5 0 0 0 15 0V96.085h482v156.743c0 4.142 3.357 7.5 7.5 7.5s7.5-3.358 7.5-7.5V56.185c0-13.441-10.935-24.376-24.375-24.376M256 354.001c-10.568 0-19.165 8.597-19.165 19.165s8.597 19.165 19.165 19.165 19.165-8.597 19.165-19.165-8.598-19.165-19.165-19.165m0 23.33c-2.296 0-4.165-1.869-4.165-4.165s1.869-4.165 4.165-4.165 4.165 1.869 4.165 4.165-1.868 4.165-4.165 4.165"/><path d="M63.648 57.02H48.672a7.5 7.5 0 0 0 0 15h14.976a7.5 7.5 0 0 0 0-15M106.834 57.02H91.859a7.5 7.5 0 0 0 0 15h14.975a7.5 7.5 0 0 0 0-15M150.021 57.02h-14.975a7.5 7.5 0 0 0 0 15h14.975a7.5 7.5 0 0 0 0-15M193.208 57.02h-14.975a7.5 7.5 0 0 0 0 15h14.975a7.5 7.5 0 0 0 0-15M236.395 57.02H221.42a7.5 7.5 0 0 0 0 15h14.975a7.5 7.5 0 0 0 0-15M459.292 132.339h-22.413a7.5 7.5 0 0 0-7.5 7.5v3.436H82.623v-3.436a7.5 7.5 0 0 0-7.5-7.5H52.71a7.5 7.5 0 0 0-7.5 7.5v22.413a7.5 7.5 0 0 0 7.5 7.5h22.413a7.5 7.5 0 0 0 7.5-7.5v-3.977h95.729c-17.107 6.455-33.43 15.089-48.671 25.798a26.95 26.95 0 0 0-13.443-3.581c-14.956 0-27.124 12.167-27.124 27.124s12.167 27.124 27.124 27.124 27.124-12.167 27.124-27.124c0-4.552-1.132-8.843-3.122-12.613 34.164-23.432 74.026-35.784 115.761-35.784s81.597 12.352 115.761 35.784a26.95 26.95 0 0 0-3.122 12.613c0 14.956 12.168 27.124 27.124 27.124s27.124-12.167 27.124-27.124-12.168-27.124-27.124-27.124c-4.89 0-9.477 1.307-13.443 3.581-15.241-10.709-31.564-19.343-48.671-25.798h95.729v3.977a7.5 7.5 0 0 0 7.5 7.5h22.413a7.5 7.5 0 0 0 7.5-7.5v-22.413a7.5 7.5 0 0 0-7.5-7.5M67.623 154.752H60.21v-7.413h7.413zm48.614 64.988c-6.685 0-12.124-5.438-12.124-12.124s5.438-12.124 12.124-12.124 12.124 5.438 12.124 12.124-5.439 12.124-12.124 12.124m279.526-24.248c6.686 0 12.124 5.439 12.124 12.124s-5.438 12.124-12.124 12.124-12.124-5.438-12.124-12.124 5.438-12.124 12.124-12.124m56.027-40.74h-7.413v-7.413h7.413zM221.724 110.879h-1.497a7.5 7.5 0 0 0 0 15h1.497a7.5 7.5 0 0 0 0-15M256.748 110.879h-1.496a7.5 7.5 0 0 0 0 15h1.496c4.143 0 7.5-3.358 7.5-7.5s-3.357-7.5-7.5-7.5M291.772 110.879h-1.496c-4.143 0-7.5 3.358-7.5 7.5s3.357 7.5 7.5 7.5h1.496c4.143 0 7.5-3.358 7.5-7.5s-3.357-7.5-7.5-7.5"/></svg>