<svg xmlns="http://www.w3.org/2000/svg" xml:space="preserve" width="512" height="512"><path d="M115.613 478.968H297.29V198.194H115.613zm16.516-16.516v-49.548h148.645v49.548zm148.645-115.613v49.548H132.129v-49.548zm-148.645-16.516v-49.548h148.645v49.548zM280.774 214.71v49.548H132.129V214.71z"/><path d="M338.581 280.774h33.032c77.41 0 140.387-62.978 140.387-140.387S449.023 0 371.613 0a140.3 140.3 0 0 0-92.111 34.444c-20.576 17.906-35.403 41.301-42.837 67.173-20.069-22.216-48.964-35.553-79.762-35.553-56.605 0-103.118 44.032-107.081 99.646C21.711 169.611 0 193.801 0 222.968c0 31.875 25.932 57.806 57.806 57.806H82.58v49.548H61.226L44.71 313.806H0v16.516h37.87l16.516 16.516H82.58v16.516H33.032v16.516H82.58v16.516H54.387L37.87 412.903H0v16.516h44.71l16.516-16.516H82.58v74.323c0 13.66 11.113 24.774 24.774 24.774h198.194c13.661 0 24.774-11.114 24.774-24.774v-74.323h21.354l16.516 16.516h44.71v-16.516h-37.87l-16.516-16.516h-28.194v-16.516h49.548v-16.516h-49.548v-16.516h28.194l16.516-16.516h37.87v-16.516h-44.71l-16.516 16.516h-21.354v-49.548zm33.032-264.258c11.682 0 24.191 19.036 32.342 49.548h-64.776c1.655-6.193 3.519-12.038 5.599-17.433 7.752-20.109 17.784-32.115 26.835-32.115m36.095 66.065c2.822 14.808 4.658 31.529 5.092 49.548h-82.366c.413-17.496 2.121-34.29 5.001-49.548zm87.494 49.548h-65.885c-.402-16.828-2.027-33.724-4.831-49.548h56.653a122.9 122.9 0 0 1 14.063 49.548m0 16.516a123 123 0 0 1-14.062 49.548h-56.578c2.746-15.53 4.366-32.364 4.76-49.548zm-82.399 0c-.414 17.297-2.13 34.173-5.028 49.548h-.455c-9.109-19.124-28.419-32.49-50.849-33.016a82.2 82.2 0 0 0-9.654-16.533h65.986zm-14.542 112.718c9.099-10.218 14.643-23.669 14.643-38.395 0-2.805-.21-5.56-.597-8.258h58.34c-17.506 23.267-43.008 40.187-72.386 46.653m72.386-195.298H421.03c-4.409-18.049-10.523-33.918-18.262-45.578 27.478 7.144 51.275 23.508 67.879 45.578M340.561 20.53c-4.106 6.114-7.867 13.529-11.195 22.162-2.758 7.154-5.165 15.005-7.225 23.374H272.69c16.731-22.099 40.646-38.39 67.871-45.536M262.12 82.581h56.548c-2.238 12.641-3.743 26.148-4.427 40.147a82.3 82.3 0 0 0-33.467-7.114c-10.414 0-20.481 1.895-30.027 5.644-.387-.695-.792-1.375-1.193-2.058a121.8 121.8 0 0 1 12.566-36.619M57.806 264.258c-22.767 0-41.29-18.523-41.29-41.29s18.523-41.29 41.29-41.29h8.258v-8.258c0-50.088 40.75-90.839 90.839-90.839 35.353 0 67.756 20.761 82.553 52.891l3.602 7.819 7.663-3.924c9.38-4.803 19.492-7.238 30.053-7.238 28.023 0 53.078 17.767 62.347 44.211l2.115 6.033 6.369-.536a42 42 0 0 1 3.491-.159c22.767 0 41.29 18.523 41.29 41.29s-18.523 41.29-41.29 41.29h-24.774v-74.323c0-13.66-11.113-24.774-24.774-24.774H107.355c-13.661 0-24.774 11.114-24.774 24.774v74.323zm256 222.968c0 4.553-3.705 8.258-8.258 8.258H107.355c-4.553 0-8.258-3.705-8.258-8.258v-297.29c0-4.553 3.705-8.258 8.258-8.258h198.194c4.553 0 8.258 3.705 8.258 8.258z"/><circle cx="156.903" cy="239.484" r="8.258"/><circle cx="189.935" cy="239.484" r="8.258"/><path d="M214.71 231.226h49.548v16.516H214.71z"/><circle cx="156.903" cy="305.548" r="8.258"/><circle cx="189.935" cy="305.548" r="8.258"/><path d="M214.71 297.29h49.548v16.516H214.71z"/><circle cx="156.903" cy="371.613" r="8.258"/><circle cx="189.935" cy="371.613" r="8.258"/><path d="M214.71 363.355h49.548v16.516H214.71z"/><circle cx="156.903" cy="437.677" r="8.258"/><circle cx="189.935" cy="437.677" r="8.258"/><path d="M214.71 429.419h49.548v16.516H214.71zM0 363.355h16.516v16.516H0zM396.387 363.355h16.516v16.516h-16.516zM156.903 115.613c17.636 0 34.086 7.902 45.131 21.682l12.887-10.331c-14.197-17.709-35.343-27.867-58.018-27.867-13.065 0-25.918 3.441-37.167 9.949l8.271 14.297c8.738-5.058 18.731-7.73 28.896-7.73M111.772 137.294l-12.887-10.331a74.2 74.2 0 0 0-10.899 18.584l15.309 6.196a57.8 57.8 0 0 1 8.477-14.449"/></svg>