<svg xmlns="http://www.w3.org/2000/svg" width="512" height="512" viewBox="0 0 550 550"><path d="M391 307H271a6 6 0 0 1-6-6v-96a6 6 0 0 1 6-6h120a6 6 0 0 1 6 6v96a6 6 0 0 1-6 6m-114-12h108v-84H277z"/><path d="M355.005 307.001a5.99 5.99 0 0 1-4.92-2.561L313 251.463l-37.084 52.978a6 6 0 0 1-9.831-6.88l42-60a5.998 5.998 0 0 1 9.83 0l42 60a5.999 5.999 0 0 1-4.91 9.44"/><path d="M391 295a5.98 5.98 0 0 1-4.242-1.758l-30.114-30.113-10.277 20.555a6 6 0 0 1-10.733-5.367l14-28a6 6 0 0 1 4.405-3.239 5.99 5.99 0 0 1 5.203 1.68l36 36a5.997 5.997 0 0 1 0 8.484A5.98 5.98 0 0 1 391 295"/><path d="M525.25 439.92H25.75a6 6 0 0 1-6-6V133a6 6 0 0 1 6-6H133a6 6 0 0 1 0 12H31.75v288.92h487.5V139H421a6 6 0 0 1 0-12h104.25a6 6 0 0 1 6 6v300.92a6 6 0 0 1-6 6"/><path d="M340 502.75H215.5a6 6 0 0 1-5.764-7.667l18-62.25a6 6 0 0 1 5.764-4.333h83.25a6 6 0 0 1 5.621 3.9l23.25 62.25a6.002 6.002 0 0 1-5.621 8.1m-116.519-12h107.874l-18.769-50.25h-74.575z"/><path d="M363.25 530.5h-174.5a6 6 0 0 1-6-6v-27.75a6 6 0 0 1 6-6h174.5a6 6 0 0 1 6 6v27.75a6 6 0 0 1-6 6m-168.5-12h162.5v-15.75h-162.5zM525.25 373.75H25.75a6 6 0 0 1 0-12h499.5a6 6 0 0 1 0 12M475.75 420.25c-9.512 0-17.25-7.738-17.25-17.25s7.738-17.25 17.25-17.25S493 393.488 493 403s-7.738 17.25-17.25 17.25m0-22.5c-2.895 0-5.25 2.355-5.25 5.25s2.355 5.25 5.25 5.25S481 405.895 481 403s-2.355-5.25-5.25-5.25M427.75 420.25c-9.512 0-17.25-7.738-17.25-17.25s7.738-17.25 17.25-17.25S445 393.488 445 403s-7.738 17.25-17.25 17.25m0-22.5c-2.895 0-5.25 2.355-5.25 5.25s2.355 5.25 5.25 5.25S433 405.895 433 403s-2.355-5.25-5.25-5.25M379.75 420.25c-9.512 0-17.25-7.738-17.25-17.25s7.738-17.25 17.25-17.25S397 393.488 397 403s-7.738 17.25-17.25 17.25m0-22.5c-2.895 0-5.25 2.355-5.25 5.25s2.355 5.25 5.25 5.25S385 405.895 385 403s-2.355-5.25-5.25-5.25M130.75 420.25h-81a6 6 0 0 1-6-6v-25.5a6 6 0 0 1 6-6h81a6 6 0 0 1 6 6v25.5a6 6 0 0 1-6 6m-75-12h69v-13.5h-69zM421 337H133a6 6 0 0 1-6-6V25a6 6 0 0 1 6-6h288a6 6 0 0 1 6 6v306a6 6 0 0 1-6 6m-282-12h276V31H139z"/><path d="M421 103H133a6 6 0 0 1 0-12h288a6 6 0 0 1 0 12M175 79c-9.925 0-18-8.075-18-18s8.075-18 18-18 18 8.075 18 18-8.075 18-18 18m0-24c-3.309 0-6 2.691-6 6s2.691 6 6 6 6-2.691 6-6-2.691-6-6-6M223 79c-9.925 0-18-8.075-18-18s8.075-18 18-18 18 8.075 18 18-8.075 18-18 18m0-24c-3.309 0-6 2.691-6 6s2.691 6 6 6 6-2.691 6-6-2.691-6-6-6M271 79c-9.925 0-18-8.075-18-18s8.075-18 18-18 18 8.075 18 18-8.075 18-18 18m0-24c-3.309 0-6 2.691-6 6s2.691 6 6 6 6-2.691 6-6-2.691-6-6-6M391 79h-72a6 6 0 0 1-6-6V49a6 6 0 0 1 6-6h72a6 6 0 0 1 6 6v24a6 6 0 0 1-6 6m-66-12h60V55h-60zM189.662 186.258a5.98 5.98 0 0 1-4.24-1.755L158.76 157.87a6.004 6.004 0 0 1 .008-8.499l26.34-26.207a6 6 0 0 1 8.464 8.506l-22.073 21.961 22.404 22.379a6 6 0 0 1 .005 8.485 5.98 5.98 0 0 1-4.246 1.763M259 186.258a5.999 5.999 0 0 1-4.24-10.245l22.404-22.379-22.074-21.961a6 6 0 0 1-.021-8.485 6 6 0 0 1 8.485-.021l26.339 26.207a6 6 0 0 1 .009 8.499l-26.662 26.633a6 6 0 0 1-4.24 1.752M212.372 187.226a6 6 0 0 1-5.572-8.221l21.587-54.224a6 6 0 1 1 11.149 4.439l-21.587 54.224a6 6 0 0 1-5.577 3.782M385 145h-66a6 6 0 0 1 0-12h66a6 6 0 0 1 0 12M385 175h-66a6 6 0 0 1 0-12h66a6 6 0 0 1 0 12M235 235h-66a6 6 0 0 1 0-12h66a6 6 0 0 1 0 12M235 265h-66a6 6 0 0 1 0-12h66a6 6 0 0 1 0 12M235 295h-66a6 6 0 0 1 0-12h66a6 6 0 0 1 0 12"/></svg>