<svg xmlns="http://www.w3.org/2000/svg" viewBox="0 0 120 120"><path d="M44.24 62.59a6.41 6.41 0 0 0-6.4 6.41c.3 8.48 12.51 8.48 12.81 0a6.42 6.42 0 0 0-6.41-6.41m0 9.82a3.41 3.41 0 0 1 0-6.82 3.41 3.41 0 0 1 0 6.82M91.61 89.54H74.5a1.5 1.5 0 0 0 0 3h17.11a1.5 1.5 0 0 0 0-3M91.61 95.87H74.5a1.5 1.5 0 0 0 0 3h17.11a1.5 1.5 0 0 0 0-3M94.11 69.77A2.54 2.54 0 0 0 92 68l-4.6-.67-2.1-4.08a2.57 2.57 0 0 0-4.61 0l-2 4.07-4.6.68a2.58 2.58 0 0 0-2.17 2.92 2.6 2.6 0 0 0 .76 1.49L76 75.57 75.21 80a2.59 2.59 0 0 0 2.09 3 2.54 2.54 0 0 0 1.63-.25L83 80.66l4.11 2.13a2.58 2.58 0 0 0 3.47-1.08 2.63 2.63 0 0 0 .26-1.65l-.78-4.46 3.26-3.13a2.58 2.58 0 0 0 .79-2.7M87.44 74a1.5 1.5 0 0 0-.44 1.32l.76 4.41c-.47-.17-4.28-2.4-4.73-2.26-.44-.14-4.26 2.08-4.72 2.24l.77-4.41a1.5 1.5 0 0 0-.44-1.3l-3.25-3.11 4.5-.65a1.49 1.49 0 0 0 1.11-.85l2-4 2.09 4a1.48 1.48 0 0 0 1.12.8l4.45.64Z"/><path d="M101.19 53.82H70.33v-4.68a1.5 1.5 0 0 0-.37-1l9.34-9.29c.61-.5.42-1.62.45-2.31h5.84c2.33-.13 5.33.52 7.08-1l9.77-7.67a1.51 1.51 0 0 0 0-2.36l-9.77-7.61c-1.71-1.48-4.78-.83-7.08-1H68.31V12a4.51 4.51 0 0 0-4.5-4.5c-1.75 0-4-.19-5.29 1.17-1.3-1.34-3.52-1.17-5.28-1.15a4.44 4.44 0 0 0-3 1.17C48.93 7.33 46.7 7.5 45 7.52a4.46 4.46 0 0 0-3 1.17c-1.31-1.36-3.54-1.19-5.29-1.17a4.51 4.51 0 0 0-4.5 4.5v4.92h-13.4a4.51 4.51 0 0 0-4.5 4.5V32a4.5 4.5 0 0 0 4.5 4.5H32.7l4 11.1a1.51 1.51 0 0 0-1.36 1.49v6.11h-2.5a1.5 1.5 0 0 0-1.5 1.5V107a5.51 5.51 0 0 0 5.5 5.5h64.31a4.51 4.51 0 0 0 4.5-4.5V58.34a4.51 4.51 0 0 0-4.46-4.52M24.42 24v9.57h-5.61a1.5 1.5 0 0 1-1.5-1.5V21.44a1.5 1.5 0 0 1 1.5-1.5h5.61Zm60.4 9.58h-5.07v-2.54h5.12l.91 1.27Zm4-7.68L87.44 24l1.35-1.89a1.68 1.68 0 0 0-.28-2.14c.63 0 1.8-.17 2.31.32l3.58 2.81v7.34l-3.58 2.81c-.51.49-1.68.29-2.31.33a1.67 1.67 0 0 0 .28-2.14l-1.35-1.9 1.35-1.9a1.47 1.47 0 0 0 0-1.77Zm-20.51-5.96h16.51l.91 1.27-.91 1.26H68.31Zm-.26 5.53h16.77l.91 1.27-.91 1.26h-19a4.57 4.57 0 0 0 2.23-2.53M60 12a1.5 1.5 0 0 1 1.5-1.5h2.29a1.5 1.5 0 0 1 1.5 1.5v12a1.5 1.5 0 0 1-1.5 1.5h-2.27A1.5 1.5 0 0 1 60 24Zm-.83 19h17.08a.5.5 0 0 1 .5.5v4.8H59.19a2.29 2.29 0 0 1-2.28-2.3v-.73A2.28 2.28 0 0 1 59.19 31Zm-7.43-19a1.5 1.5 0 0 1 1.5-1.5h2.28A1.5 1.5 0 0 1 57 12v14.51a1.5 1.5 0 0 1-1.5 1.5h-2.26a1.5 1.5 0 0 1-1.5-1.5Zm-8.29 0a1.5 1.5 0 0 1 1.5-1.5h2.29a1.5 1.5 0 0 1 1.5 1.5v12a1.5 1.5 0 0 1-1.5 1.5H45a1.5 1.5 0 0 1-1.5-1.5Zm-8.29 0a1.5 1.5 0 0 1 1.5-1.5H39a1.5 1.5 0 0 1 1.5 1.5v9a1.5 1.5 0 0 1-1.5 1.5h-2.34a1.5 1.5 0 0 1-1.5-1.5Zm-7.74 7.92h4.74a6.9 6.9 0 0 0 .27 2.53h-5Zm0 5.53h9.2c1.08 0 3 .15 4-.33A4.53 4.53 0 0 0 43 28H27.42Zm0 8.08V31h27a5.3 5.3 0 0 0-.54 2.54Zm8.47 3h18.7a5.26 5.26 0 0 0 4.6 2.75h15.42l-8.39 8.34H39.93Zm24.57 71.59a4.6 4.6 0 0 0 .28 1.34H36.88a2.5 2.5 0 0 1-2.5-2.5V58.2h26.41a6.5 6.5 0 0 0-.36 2.12c.03.28-.06 47.58.03 47.82ZM38.38 55.2v-4.56h28.95v3.18a6.63 6.63 0 0 0-4.39 1.38Zm64.31 52.8a1.5 1.5 0 0 1-1.5 1.5H65.07a1.64 1.64 0 0 1 0-3.28h36.12a4.4 4.4 0 0 0 1.5-.28Zm0-6.28a1.5 1.5 0 0 1-1.5 1.5H65.07a4.5 4.5 0 0 0-1.64.3v-43.2a3.5 3.5 0 0 1 3.5-3.5h34.26a1.5 1.5 0 0 1 1.5 1.5Z"/></svg>